# xmcd
#
# Track frame offsets:
# 150
# 18695
# 32365
# 44430
# 59345
# 78077
# 97405
# 108125
# 122457
# 132050
# 143200
# 154825
# 175795
#
# Disc length: 2558 seconds
#
#
# Revision: 0
# Processed by: cddbd v1.5.1PL0 Copyright (c) Steve Scherf et al.
# Submitted via: FreeRIP 2.93 
#
DISCID=a309fc0d
DTITLE=Mix - Jen ty ma Sazavo
DYEAR=1995
DGENRE=Country
TTITLE0=Jen ty ma Sazavo
TTITLE1=Jedno pradlo
TTITLE2=Jez
TTITLE3=Sazava
TTITLE4=Pojd do moji chaty
TTITLE5=Texaska ruze
TTITLE6=Pojd devce
TTITLE7=Sedm zlutejch kaminku
TTITLE8=Bily vuz
TTITLE9=Sazavsky dil
TTITLE10=Tak ahoj trampe
TTITLE11=Ranni letadlo
TTITLE12=Cernej Bobbie
EXTD=
EXTT0=Akaty
EXTT1=Akaty
EXTT2=Mladek
EXTT3=Mataci
EXTT4=Akaty
EXTT5=Veterani
EXTT6=Nedved
EXTT7=TC Praha
EXTT8=Nedved
EXTT9=Posazavsky Expres
EXTT10=TC Praha
EXTT11=TE Brno
EXTT12=Karabina
PLAYORDER=
